<svg id="Capa_1" enable-background="new 0 0 512 512" height="512" viewBox="0 0 512 512" width="512" 
  xmlns="http://www.w3.org/2000/svg">
  <g>
    <g>
      <g>
        <path d="m320.551 13.73h-129.1c-12.831 0-23.232 10.401-23.232 23.232v48.378h175.564v-48.378c-.001-12.831-10.402-23.232-23.232-23.232z" fill="#df73c1"/>
        <path d="m232.609 13.732c-12.83 0-23.23 10.4-23.23 23.23v48.38h-41.16v-48.38c0-12.83 10.4-23.23 23.23-23.23h41.16z" fill="#dd4fb1"/>
        <path d="m40.668 325.701c-20.934 74.165-19.913 149.381-19.913 149.381h470.491s1.021-75.216-19.913-149.381l-30.234-54.986h-380.766z" fill="#c6865c"/>
        <path d="m122.135 325.701c-13.01 74.17-12.38 149.38-12.38 149.38h-89s-1.02-75.21 19.92-149.38l19.66-54.99h74.03z" fill="#b16e3d"/>
        <path d="m122.132 135.169c-13.014 57.607-12.38 116.031-12.38 116.031h292.496s.635-58.424-12.38-116.031l-49.828-49.829h-179.74z" fill="#c6865c"/>
        <path d="m198.562 85.34c-8.51 18.49-15.23 37.71-20.09 57.39s-7.86 39.81-8.91 60.14c-1.47 28.24-1.34 48.33-1.34 48.33h-58.47s-.63-58.42 12.38-116.03l38.17-49.83z" fill="#b16e3d"/>
        <path d="m261.312 233.212h-198.014c-28.16 0-50.989 22.828-50.989 50.989v2.722c0 20.591 4.784 38.292 29.072 38.292s28.606-28.809 47.834-28.809 22.385 32.783 59.476 32.783 40.248-32.783 59.476-32.783 23.547 28.809 47.834 28.809 28.606-28.809 47.834-28.809 22.385 32.783 59.476 32.783 40.248-32.783 59.476-32.783 23.547 28.809 47.834 28.809c24.288 0 29.072-17.701 29.072-38.292v-2.723c0-28.16-22.828-50.989-50.989-50.989h-198.015" fill="#f9efda"/>
        <path d="m63.298 233.212h99.31c-28.16 0-50.99 27.33-50.99 61.05v3.26c0 5.39.23 10.62.84 15.49-7.94-8.27-13.55-16.61-23.25-16.61-19.22 0-23.54 28.81-47.83 28.81-12.15 0-19.41-4.42-23.64-11.42s-5.43-16.58-5.43-26.87v-2.73c0-28.16 22.83-50.98 50.99-50.98z" fill="#f6e4c1"/>
        <g>
          <path d="m416.192 95.929v-11.688c0-15.413-12.495-27.908-27.908-27.908h-264.566c-15.413 0-27.908 12.495-27.908 27.908v11.688c0 24.186 5.619 44.977 34.147 44.977s33.601-33.839 56.185-33.839 26.293 38.506 69.859 38.506 47.274-38.506 69.859-38.506 27.657 33.839 56.185 33.839 34.147-20.791 34.147-44.977z" fill="#f9efda"/>
          <path d="m134.627 84.238v11.692c0 12.093 1.405 23.331 6.374 31.558 1.839 3.05 4.174 5.679 7.11 7.786-4.95 3.364-10.762 5.632-18.153 5.632-14.267 0-22.802-5.197-27.772-13.418-4.97-8.227-6.374-19.465-6.374-31.558v-11.692c0-15.411 12.495-27.906 27.906-27.906h38.815c-15.411 0-27.906 12.495-27.906 27.906z" fill="#f6e4c1"/>
        </g>
        <path d="m419.152 190.59c0 8.28-6.71 15-15 15-22.01 0-33.51-5.67-43.66-10.67-8.6-4.23-15.39-7.57-30.42-7.57s-21.82 3.34-30.41 7.57c-10.15 5-21.66 10.67-43.67 10.67s-33.51-5.67-43.66-10.67c-8.6-4.23-15.39-7.57-30.42-7.57-8.46 0-14.31 1.06-19.34 2.74-3.9 1.3-7.31 2.99-11.07 4.83-10.15 5-21.65 10.67-43.66 10.67-8.29 0-15-6.72-15-15 0-8.29 6.71-15 15-15 15.02 0 21.81-3.35 30.41-7.58 6.79-3.34 14.18-6.98 24.91-9.02 5.32-1.02 11.46-1.64 18.75-1.64 22.02 0 33.52 5.66 43.67 10.66 8.6 4.23 15.39 7.58 30.41 7.58 15.03 0 21.82-3.35 30.42-7.58 10.15-5 21.65-10.66 43.66-10.66s33.52 5.66 43.67 10.66c8.6 4.23 15.39 7.58 30.41 7.58 8.29 0 15 6.71 15 15z" fill="#b3e59f"/>
        <path d="m162.572 190.09c-3.9 1.3-7.31 2.99-11.07 4.83-10.15 5-21.65 10.67-43.66 10.67-8.29 0-15-6.72-15-15 0-8.29 6.71-15 15-15 15.02 0 21.81-3.35 30.41-7.58 6.79-3.34 14.18-6.98 24.91-9.02-3.85 13.51-2.82 23.86-.59 31.1z" fill="#95d6a4"/>
        <path d="m498.802 370.69c0 8.28-6.72 15-15 15-15.28 0-22.21 3.65-30.98 8.27-9.92 5.22-22.27 11.73-44.96 11.73s-35.04-6.51-44.96-11.73c-8.77-4.62-15.7-8.27-30.98-8.27-15.27 0-22.2 3.65-30.97 8.27-9.92 5.22-22.26 11.73-44.96 11.73-22.69 0-35.03-6.51-44.95-11.73-8.78-4.62-15.7-8.27-30.98-8.27-15.27 0-22.2 3.65-30.97 8.27-9.92 5.22-22.27 11.73-44.96 11.73-3.02 0-5.87-.12-8.54-.33-17.4-1.38-27.81-6.88-36.41-11.4-8.78-4.62-15.71-8.27-30.98-8.27-8.28 0-15-6.72-15-15 0-8.29 6.72-15 15-15 22.69 0 35.04 6.5 44.96 11.72 7.52 3.97 13.69 7.22 24.93 8.06 1.86.15 3.87.22 6.04.22 15.27 0 22.2-3.65 30.98-8.28 9.92-5.22 22.26-11.72 44.95-11.72s35.04 6.5 44.96 11.72c8.77 4.63 15.7 8.28 30.97 8.28 15.28 0 22.2-3.65 30.98-8.28 9.92-5.22 22.26-11.72 44.95-11.72 22.7 0 35.04 6.5 44.96 11.72 8.78 4.63 15.71 8.28 30.98 8.28 15.28 0 22.21-3.65 30.98-8.28 9.92-5.22 22.26-11.72 44.96-11.72 8.28 0 15 6.71 15 15z" fill="#bc95e2"/>
        <path d="m95.592 405.36c-17.4-1.38-27.81-6.88-36.41-11.4-8.78-4.62-15.71-8.27-30.98-8.27-8.28 0-15-6.72-15-15 0-8.29 6.72-15 15-15 22.69 0 35.04 6.5 44.96 11.72 7.52 3.97 13.69 7.22 24.93 8.06-3.83 7.35-7.23 18.35-2.5 29.89z" fill="#ac80dd"/>
      </g>
      <path d="m504.5 457.52h-497c0 22.506 18.244 40.75 40.75 40.75h415.5c22.506 0 40.75-18.244 40.75-40.75z" fill="#ffe07d"/>
      <path d="m155.31 498.27h-107.06c-11.25 0-21.44-4.56-28.82-11.93-7.37-7.38-11.93-17.56-11.93-28.82h107.06c0 11.26 4.56 21.44 11.93 28.82 7.38 7.37 17.57 11.93 28.82 11.93z" fill="#ffd064"/>
    </g>
    <path d="m504.5 450.02h-6.387c-.742-15.086-2.31-35.567-5.576-58.595 8.08-3.417 13.765-11.424 13.765-20.735 0-12.097-9.597-21.99-21.577-22.477-1.257-5.623-2.59-11.153-4-16.538 26.447-5.794 26.467-34.587 26.467-44.753v-2.722c0-32.251-26.237-58.489-58.488-58.489h-39.62c-.213-4.352-.475-8.697-.777-13.015 10.43-1.954 18.349-11.122 18.349-22.11 0-12.407-10.094-22.5-22.5-22.5-.213 0-.408-.007-.617-.008-1.138-7.777-2.429-15.369-3.86-22.697 24.007-9.484 24.012-38.65 24.012-49.452v-11.689c0-12.312-6.544-23.918-17.079-30.288-3.544-2.143-8.156-1.007-10.299 2.537-2.144 3.544-1.007 8.156 2.537 10.299 6.162 3.726 9.841 10.25 9.841 17.452v11.69c0 31.106-10.653 37.48-26.65 37.48-11.757 0-18.395-7.376-26.08-15.917-7.56-8.401-16.128-17.923-30.1-17.923-12.77 0-20.664 8.664-28.298 17.042-9.612 10.549-19.551 21.458-41.562 21.458-22.02 0-31.96-10.911-41.572-21.462-7.632-8.376-15.522-17.038-28.287-17.038-13.971 0-22.541 9.521-30.103 17.922-7.689 8.542-14.329 15.918-26.088 15.918-13.829 0-18.801-5.59-21.343-9.803-3.614-5.972-5.297-14.766-5.297-27.677v-11.69c0-11.254 9.156-20.41 20.41-20.41h44.448c.016 0 .032.002.048.002h175.564c.016 0 .032-.002.048-.002h29.451c4.143 0 7.5-3.358 7.5-7.5s-3.357-7.5-7.5-7.5h-21.999v-11.868c0-16.946-13.786-30.732-30.732-30.732h-129.1c-16.946 0-30.732 13.786-30.732 30.732v11.868h-36.996c-19.525 0-35.41 15.885-35.41 35.41v11.69c0 15.766 2.371 27.028 7.458 35.435 3.961 6.563 9.507 11.236 16.554 14.013-1.432 7.336-2.723 14.929-3.86 22.7-.212.001-.409.008-.626.008-12.406 0-22.5 10.093-22.5 22.5 0 10.991 7.924 20.161 18.358 22.111-.302 4.317-.563 8.662-.776 13.013h-39.621c-32.251 0-58.489 26.238-58.489 58.489v2.723c0 10.166.019 38.961 26.469 44.754-1.414 5.399-2.745 10.928-3.995 16.537-11.982.484-21.582 10.378-21.582 22.477 0 9.307 5.68 17.312 13.756 20.731-3.268 23.04-4.835 43.518-5.577 58.599h-6.38c-4.143 0-7.5 3.358-7.5 7.5 0 26.605 21.645 48.25 48.25 48.25h415.5c26.605 0 48.25-21.645 48.25-48.25 0-4.142-3.357-7.5-7.5-7.5zm-328.782-413.058c0-8.675 7.058-15.732 15.732-15.732h129.1c8.675 0 15.732 7.057 15.732 15.732v11.868h-160.564zm-48.69 111.381c.958.045 1.932.067 2.924.067 18.438 0 28.861-11.579 37.236-20.883 7.231-8.033 12.016-12.957 18.954-12.957 5.854 0 10.135 4.387 17.198 12.14 10.136 11.125 24.016 26.36 52.661 26.36 28.637 0 42.516-15.233 52.65-26.355 7.067-7.756 11.351-12.145 17.21-12.145 6.938 0 11.721 4.923 18.949 12.957 8.372 9.304 18.792 20.884 37.23 20.884 1.004 0 1.976-.03 2.932-.075 1.118 5.733 2.149 11.636 3.084 17.67-3.778-1.176-7.08-2.792-11.004-4.724-10.345-5.094-23.219-11.434-46.98-11.434s-36.635 6.34-46.98 11.435c-8.321 4.098-13.819 6.805-27.1 6.805s-18.777-2.707-27.098-6.805c-10.346-5.094-23.22-11.435-46.979-11.435s-36.635 6.34-46.979 11.435c-3.918 1.93-7.217 3.545-10.991 4.721.935-6.028 1.965-11.927 3.083-17.661zm-26.69 42.244c0-4.136 3.364-7.5 7.5-7.5 16.774 0 24.63-3.869 33.726-8.348 9.875-4.863 20.085-9.891 40.353-9.891 20.267 0 30.478 5.028 40.353 9.892 9.096 4.479 16.952 8.348 33.725 8.348s24.629-3.868 33.728-8.348c9.875-4.863 20.085-9.891 40.353-9.891 20.269 0 30.479 5.028 40.357 9.893 9.097 4.479 16.953 8.347 33.726 8.347 4.136 0 7.5 3.364 7.5 7.5 0 4.135-3.364 7.5-7.5 7.5-20.27 0-30.479-5.028-40.354-9.891-9.098-4.479-16.955-8.348-33.729-8.348s-24.63 3.869-33.727 8.348c-9.875 4.863-20.087 9.891-40.354 9.891s-30.477-5.028-40.352-9.891c-9.097-4.479-16.953-8.348-33.726-8.348-16.774 0-24.63 3.869-33.726 8.348-9.875 4.863-20.085 9.891-40.353 9.891-4.136-.002-7.5-3.367-7.5-7.502zm18.401 22.014c17.032-1.574 27.44-6.694 36.079-10.948 8.32-4.098 13.817-6.805 27.099-6.805 13.279 0 18.777 2.707 27.099 6.805 10.345 5.094 23.22 11.434 46.979 11.434s36.635-6.34 46.98-11.434c8.321-4.098 13.819-6.805 27.1-6.805s18.779 2.708 27.102 6.805c8.64 4.255 19.05 9.375 36.09 10.949.312 4.345.576 8.724.797 13.11h-276.122c.22-4.387.484-8.766.797-13.111zm-98.93 74.322v-2.723c0-23.98 19.509-43.489 43.489-43.489h385.405c23.979 0 43.488 19.509 43.488 43.489v2.723c0 25.641-8.254 30.792-21.571 30.792-9.513 0-15.01-6.108-21.375-13.181-6.594-7.325-14.066-15.628-26.46-15.628-11.362 0-18.25 7.562-24.91 14.874-8.021 8.805-16.314 17.91-34.565 17.91s-26.545-9.104-34.565-17.91c-6.66-7.312-13.548-14.874-24.91-14.874-12.393 0-19.865 8.303-26.459 15.628-6.365 7.073-11.862 13.181-21.375 13.181-9.512 0-15.01-6.108-21.375-13.181-6.593-7.326-14.065-15.628-26.459-15.628-11.362 0-18.25 7.562-24.91 14.874-8.021 8.805-16.314 17.91-34.565 17.91s-26.545-9.104-34.565-17.91c-6.66-7.312-13.548-14.874-24.91-14.874-12.394 0-19.866 8.303-26.46 15.628-6.365 7.073-11.862 13.181-21.375 13.181-13.32 0-21.573-5.151-21.573-30.792zm8.392 76.267c20.835 0 31.795 5.767 41.459 10.853 8.911 4.704 17.327 9.147 34.472 9.147 17.134 0 25.559-4.442 34.475-9.144 7.126-3.753 15.202-8.007 27.614-9.88 4.096-.618 6.915-4.439 6.297-8.535-.617-4.096-4.439-6.915-8.535-6.297-14.921 2.252-24.594 7.347-32.369 11.442-8.467 4.465-14.061 7.414-27.481 7.414-13.428 0-19.014-2.949-27.481-7.418-7.946-4.181-18.208-9.577-34.195-11.683 1.303-5.706 2.705-11.297 4.179-16.753 12.971-1.891 20.821-10.603 27.27-17.767 5.95-6.611 9.873-10.663 15.311-10.663 4.516 0 8.019 3.604 13.821 9.975 8.769 9.626 20.776 22.809 45.654 22.809s36.886-13.183 45.654-22.809c5.803-6.37 9.306-9.975 13.821-9.975 5.437 0 9.359 4.052 15.31 10.663 7.276 8.085 16.332 18.146 32.524 18.146s25.248-10.062 32.524-18.147c5.95-6.611 9.873-10.663 15.31-10.663 4.516 0 8.019 3.604 13.821 9.975 8.769 9.626 20.776 22.809 45.654 22.809s36.886-13.183 45.654-22.809c5.803-6.37 9.306-9.975 13.821-9.975 5.438 0 9.36 4.052 15.311 10.663 6.449 7.166 14.3 15.877 27.273 17.768 1.47 5.44 2.872 11.03 4.183 16.752-15.987 2.104-26.249 7.5-34.21 11.689-8.456 4.464-14.042 7.413-27.479 7.413-13.423 0-19.016-2.949-27.505-7.426-10.084-5.306-23.896-12.574-48.435-12.574-24.531 0-38.343 7.268-48.452 12.588-8.464 4.463-14.057 7.412-27.479 7.412-13.429 0-19.014-2.949-27.523-7.441-7.776-4.091-17.454-9.182-32.332-11.416-4.097-.614-7.916 2.206-8.531 6.303-.615 4.096 2.207 7.916 6.304 8.531 12.368 1.857 20.448 6.107 27.611 9.875 8.91 4.704 17.326 9.147 34.472 9.147 17.135 0 25.171-4.237 34.489-9.151 9.663-5.085 20.616-10.849 41.441-10.849 20.833 0 31.786 5.763 41.461 10.854 8.919 4.704 17.343 9.146 34.479 9.146 17.154 0 25.57-4.443 34.489-9.151 9.663-5.085 20.616-10.849 41.451-10.849 4.136 0 7.5 3.364 7.5 7.5s-3.364 7.5-7.5 7.5c-17.136 0-25.559 4.437-34.5 9.147-9.667 5.087-20.624 10.853-41.44 10.853s-31.773-5.766-41.464-10.865c-8.917-4.698-17.339-9.135-34.476-9.135-17.126 0-25.549 4.437-34.503 9.154-9.661 5.084-20.611 10.846-41.428 10.846-20.807 0-31.758-5.763-41.484-10.881-9.298-4.893-17.328-9.119-34.445-9.119-17.127 0-25.549 4.437-34.488 9.146-9.668 5.087-20.625 10.854-41.441 10.854-20.807 0-31.757-5.762-41.47-10.874-9.307-4.897-17.345-9.126-34.461-9.126-4.136 0-7.5-3.364-7.5-7.5s3.362-7.499 7.498-7.499zm6.12 30.248c9.234.789 14.315 3.447 21.408 7.18 10.083 5.306 23.891 12.572 48.403 12.572 24.522 0 38.339-7.271 48.456-12.595 8.464-4.459 14.057-7.405 27.474-7.405 13.411 0 19 2.941 27.525 7.428 10.083 5.306 23.892 12.572 48.404 12.572 24.522 0 38.33-7.266 48.455-12.594 8.466-4.459 14.059-7.406 27.476-7.406 13.427 0 19.02 2.946 27.513 7.421 10.088 5.309 23.904 12.579 48.427 12.579s38.338-7.27 48.455-12.594c7.046-3.711 12.117-6.368 21.356-7.157 3.147 22.161 4.681 41.901 5.421 56.582h-454.194c.738-14.676 2.272-34.413 5.421-56.583zm429.429 97.332h-415.5c-15.756 0-28.987-11.016-32.397-25.75h480.295c-3.411 14.734-16.642 25.75-32.398 25.75z"/>
  </g>
</svg>